<mxfile host="app.diagrams.net" modified="2024-05-22T15:06:46.216Z" agent="Mozilla/5.0 (Windows NT 10.0; Win64; x64) AppleWebKit/537.36 (KHTML, like Gecko) Chrome/125.0.0.0 Safari/537.36" etag="7aO_ji3cMwY4pfRdBmkp" version="24.4.4" type="github">
  <diagram name="Página-1" id="WvLcixPSottXibt74OFg">
    <mxGraphModel dx="880" dy="468" grid="1" gridSize="10" guides="1" tooltips="1" connect="1" arrows="1" fold="1" page="1" pageScale="1" pageWidth="827" pageHeight="1169" math="0" shadow="0">
      <root>
        <mxCell id="0" />
        <mxCell id="1" parent="0" />
        <mxCell id="Iz_aCx__dZbMv9vCKncL-2" style="edgeStyle=orthogonalEdgeStyle;rounded=0;orthogonalLoop=1;jettySize=auto;html=1;" edge="1" parent="1" source="Iz_aCx__dZbMv9vCKncL-1">
          <mxGeometry relative="1" as="geometry">
            <mxPoint x="560" y="60" as="targetPoint" />
          </mxGeometry>
        </mxCell>
        <mxCell id="Iz_aCx__dZbMv9vCKncL-4" style="edgeStyle=orthogonalEdgeStyle;rounded=0;orthogonalLoop=1;jettySize=auto;html=1;" edge="1" parent="1" source="Iz_aCx__dZbMv9vCKncL-1">
          <mxGeometry relative="1" as="geometry">
            <mxPoint x="414" y="120" as="targetPoint" />
          </mxGeometry>
        </mxCell>
        <mxCell id="Iz_aCx__dZbMv9vCKncL-21" style="edgeStyle=orthogonalEdgeStyle;rounded=0;orthogonalLoop=1;jettySize=auto;html=1;" edge="1" parent="1" source="Iz_aCx__dZbMv9vCKncL-1">
          <mxGeometry relative="1" as="geometry">
            <mxPoint x="280" y="60" as="targetPoint" />
          </mxGeometry>
        </mxCell>
        <mxCell id="Iz_aCx__dZbMv9vCKncL-1" value="&lt;b&gt;INICIO&lt;/b&gt;" style="rounded=1;whiteSpace=wrap;html=1;" vertex="1" parent="1">
          <mxGeometry x="354" y="30" width="120" height="60" as="geometry" />
        </mxCell>
        <mxCell id="Iz_aCx__dZbMv9vCKncL-3" value="&lt;b&gt;cadeia nomes[]&lt;/b&gt;&lt;div&gt;cadeia &lt;b&gt;resposta&lt;/b&gt;&lt;/div&gt;&lt;div&gt;inteiro &lt;b&gt;tamanhovetor&lt;/b&gt;&lt;/div&gt;" style="rounded=0;whiteSpace=wrap;html=1;" vertex="1" parent="1">
          <mxGeometry x="560" y="30" width="120" height="60" as="geometry" />
        </mxCell>
        <mxCell id="Iz_aCx__dZbMv9vCKncL-9" style="edgeStyle=orthogonalEdgeStyle;rounded=0;orthogonalLoop=1;jettySize=auto;html=1;" edge="1" parent="1" source="Iz_aCx__dZbMv9vCKncL-5">
          <mxGeometry relative="1" as="geometry">
            <mxPoint x="414" y="240" as="targetPoint" />
          </mxGeometry>
        </mxCell>
        <mxCell id="Iz_aCx__dZbMv9vCKncL-5" value="Olá, você gostaria de adicionar nomes na sua lista? Você pode adicionar até 100 pessoas! (Digite sim) para prosseguir ou (digite não) para sair." style="rounded=0;whiteSpace=wrap;html=1;" vertex="1" parent="1">
          <mxGeometry x="338" y="110" width="152" height="100" as="geometry" />
        </mxCell>
        <mxCell id="Iz_aCx__dZbMv9vCKncL-18" style="edgeStyle=orthogonalEdgeStyle;rounded=0;orthogonalLoop=1;jettySize=auto;html=1;" edge="1" parent="1" source="Iz_aCx__dZbMv9vCKncL-8">
          <mxGeometry relative="1" as="geometry">
            <mxPoint x="215" y="320" as="targetPoint" />
          </mxGeometry>
        </mxCell>
        <mxCell id="Iz_aCx__dZbMv9vCKncL-8" value="se (resposta == &quot;sim&quot; ou resposta==&quot;SIM&quot; ou resposta==&quot;Sim&quot;)" style="ellipse;whiteSpace=wrap;html=1;" vertex="1" parent="1">
          <mxGeometry x="150" y="210" width="130" height="85" as="geometry" />
        </mxCell>
        <mxCell id="Iz_aCx__dZbMv9vCKncL-12" style="edgeStyle=orthogonalEdgeStyle;rounded=0;orthogonalLoop=1;jettySize=auto;html=1;" edge="1" parent="1" source="Iz_aCx__dZbMv9vCKncL-10" target="Iz_aCx__dZbMv9vCKncL-11">
          <mxGeometry relative="1" as="geometry" />
        </mxCell>
        <mxCell id="Iz_aCx__dZbMv9vCKncL-13" style="edgeStyle=orthogonalEdgeStyle;rounded=0;orthogonalLoop=1;jettySize=auto;html=1;entryX=1;entryY=0.5;entryDx=0;entryDy=0;" edge="1" parent="1" source="Iz_aCx__dZbMv9vCKncL-10" target="Iz_aCx__dZbMv9vCKncL-8">
          <mxGeometry relative="1" as="geometry" />
        </mxCell>
        <mxCell id="Iz_aCx__dZbMv9vCKncL-14" style="edgeStyle=orthogonalEdgeStyle;rounded=0;orthogonalLoop=1;jettySize=auto;html=1;" edge="1" parent="1" source="Iz_aCx__dZbMv9vCKncL-10">
          <mxGeometry relative="1" as="geometry">
            <mxPoint x="414" y="300" as="targetPoint" />
          </mxGeometry>
        </mxCell>
        <mxCell id="Iz_aCx__dZbMv9vCKncL-10" value="&lt;b&gt;resposta &lt;/b&gt;&amp;lt;-- entrada" style="ellipse;whiteSpace=wrap;html=1;" vertex="1" parent="1">
          <mxGeometry x="354" y="240" width="120" height="30" as="geometry" />
        </mxCell>
        <mxCell id="Iz_aCx__dZbMv9vCKncL-11" value="senao se (resposta==&quot;não&quot; ou resposta==&quot;NÃO&quot; ou resposta==&quot;Não&quot;)" style="ellipse;whiteSpace=wrap;html=1;" vertex="1" parent="1">
          <mxGeometry x="560" y="210" width="130" height="85" as="geometry" />
        </mxCell>
        <mxCell id="Iz_aCx__dZbMv9vCKncL-16" style="edgeStyle=orthogonalEdgeStyle;rounded=0;orthogonalLoop=1;jettySize=auto;html=1;entryX=0.5;entryY=0;entryDx=0;entryDy=0;" edge="1" parent="1" source="Iz_aCx__dZbMv9vCKncL-15" target="Iz_aCx__dZbMv9vCKncL-17">
          <mxGeometry relative="1" as="geometry">
            <mxPoint x="414" y="440" as="targetPoint" />
          </mxGeometry>
        </mxCell>
        <mxCell id="Iz_aCx__dZbMv9vCKncL-15" value="senao {&lt;div&gt;escreva(&quot;Sua resposta é inválida&quot;)&lt;/div&gt;" style="rounded=0;whiteSpace=wrap;html=1;" vertex="1" parent="1">
          <mxGeometry x="354" y="300" width="120" height="60" as="geometry" />
        </mxCell>
        <mxCell id="Iz_aCx__dZbMv9vCKncL-17" value="&lt;b&gt;FIM&lt;/b&gt;" style="rounded=1;whiteSpace=wrap;html=1;" vertex="1" parent="1">
          <mxGeometry x="354" y="780" width="120" height="60" as="geometry" />
        </mxCell>
        <mxCell id="Iz_aCx__dZbMv9vCKncL-20" value="&#xa;&#xa;&#xa;&#xa;&#xa;&#xa;&#xa;&#xa;&#xa;&#xa;&#xa;&#xa;&#xa;&#xa;enquanto(resposta != &quot;não&quot; ou &#xa;resposta != &quot;Não&quot;&#xa; ou resposta != &quot;NÃO&quot;){&#xa;&#xa;para(i=0; i&lt;100; i++){&#xa;escreva(&quot;Você ainda quer adicionar nomes?&quot;\n)&#xa;leia(resposta)&#xa;escreva(&quot;Preencha sua lista\n:&quot;)&#xa;leia(nomes[i]) }&#xa;}&#xa;" style="swimlane;" vertex="1" parent="1">
          <mxGeometry x="30" y="320" width="285" height="390" as="geometry" />
        </mxCell>
        <mxCell id="Iz_aCx__dZbMv9vCKncL-23" value="&lt;b&gt;tamanhovetor = u.numero_elementos (nomes)&lt;/b&gt;" style="text;html=1;align=center;verticalAlign=middle;resizable=0;points=[];autosize=1;strokeColor=none;fillColor=none;" vertex="1" parent="Iz_aCx__dZbMv9vCKncL-20">
          <mxGeometry x="-2.5" y="200" width="290" height="30" as="geometry" />
        </mxCell>
        <mxCell id="Iz_aCx__dZbMv9vCKncL-26" value="&lt;b&gt;para(i=tamanhovetor+1; i&amp;lt;100;i++){&lt;/b&gt;&lt;div&gt;&lt;b&gt;nomes[i] = &quot;VAZIO&quot;&lt;/b&gt;&lt;/div&gt;" style="text;html=1;align=center;verticalAlign=middle;resizable=0;points=[];autosize=1;strokeColor=none;fillColor=none;" vertex="1" parent="Iz_aCx__dZbMv9vCKncL-20">
          <mxGeometry x="32.5" y="245" width="220" height="40" as="geometry" />
        </mxCell>
        <mxCell id="Iz_aCx__dZbMv9vCKncL-27" value="&lt;b&gt;escreva(&quot;LISTA NOMES\n&quot;)&lt;/b&gt;&lt;div&gt;&lt;b&gt;escreva(&quot;--------------------------------\n\n&quot;)&lt;/b&gt;&lt;/div&gt;&lt;div&gt;&lt;b&gt;para(i=0; i&amp;lt;100 ; i++){&lt;/b&gt;&lt;/div&gt;&lt;div&gt;&lt;b&gt;escreva(nomes[i])&quot;\n&quot;)&lt;/b&gt;&lt;/div&gt;" style="text;html=1;align=center;verticalAlign=middle;resizable=0;points=[];autosize=1;strokeColor=none;fillColor=none;" vertex="1" parent="Iz_aCx__dZbMv9vCKncL-20">
          <mxGeometry x="15" y="300" width="240" height="70" as="geometry" />
        </mxCell>
        <mxCell id="Iz_aCx__dZbMv9vCKncL-22" value="inclua biblioteca&lt;div&gt;&amp;nbsp;Util --&amp;gt; u&lt;/div&gt;" style="rounded=0;whiteSpace=wrap;html=1;" vertex="1" parent="1">
          <mxGeometry x="150" y="30" width="120" height="60" as="geometry" />
        </mxCell>
        <mxCell id="Iz_aCx__dZbMv9vCKncL-24" value="" style="endArrow=none;dashed=1;html=1;rounded=0;exitX=0;exitY=0.5;exitDx=0;exitDy=0;entryX=1;entryY=0.5;entryDx=0;entryDy=0;" edge="1" parent="1" source="Iz_aCx__dZbMv9vCKncL-20" target="Iz_aCx__dZbMv9vCKncL-20">
          <mxGeometry width="50" height="50" relative="1" as="geometry">
            <mxPoint x="390" y="520" as="sourcePoint" />
            <mxPoint x="440" y="470" as="targetPoint" />
          </mxGeometry>
        </mxCell>
        <mxCell id="Iz_aCx__dZbMv9vCKncL-28" value="" style="endArrow=classic;html=1;rounded=0;exitX=0.5;exitY=1;exitDx=0;exitDy=0;entryX=0.017;entryY=0.633;entryDx=0;entryDy=0;entryPerimeter=0;" edge="1" parent="1" source="Iz_aCx__dZbMv9vCKncL-20" target="Iz_aCx__dZbMv9vCKncL-17">
          <mxGeometry width="50" height="50" relative="1" as="geometry">
            <mxPoint x="390" y="720" as="sourcePoint" />
            <mxPoint x="440" y="670" as="targetPoint" />
            <Array as="points">
              <mxPoint x="170" y="818" />
            </Array>
          </mxGeometry>
        </mxCell>
        <mxCell id="Iz_aCx__dZbMv9vCKncL-29" value="" style="endArrow=classic;html=1;rounded=0;exitX=0.5;exitY=1;exitDx=0;exitDy=0;entryX=1;entryY=0.5;entryDx=0;entryDy=0;" edge="1" parent="1" source="Iz_aCx__dZbMv9vCKncL-11" target="Iz_aCx__dZbMv9vCKncL-17">
          <mxGeometry width="50" height="50" relative="1" as="geometry">
            <mxPoint x="390" y="520" as="sourcePoint" />
            <mxPoint x="440" y="470" as="targetPoint" />
            <Array as="points">
              <mxPoint x="620" y="810" />
            </Array>
          </mxGeometry>
        </mxCell>
      </root>
    </mxGraphModel>
  </diagram>
</mxfile>
